<?xml version="1.0" encoding="UTF-8"?>
<svg version="1.1" xmlns="http://www.w3.org/2000/svg" width="32" height="32">
<path d="M0 0 C6.6515625 -0.0309375 6.6515625 -0.0309375 13.4375 -0.0625 C14.83798584 -0.071604 16.23847168 -0.08070801 17.68139648 -0.09008789 C19.32217163 -0.09383423 19.32217163 -0.09383423 20.99609375 -0.09765625 C22.12200928 -0.10289307 23.2479248 -0.10812988 24.40795898 -0.11352539 C27 -0 27 -0 28 1 C28.24296211 3.94254112 28.42512705 6.86461157 28.5625 9.8125 C28.60568359 10.61365234 28.64886719 11.41480469 28.69335938 12.24023438 C29.0230353 18.84945175 29 25.3614994 29 32 C19.1 32 9.2 32 -1 32 C-0.67 21.44 -0.34 10.88 0 0 Z " fill="#485B58" transform="translate(2,0)"/>
<path d="M0 0 C0 3.3 0 6.6 0 10 C0.99 10.33 1.98 10.66 3 11 C5.44618488 16.89308176 5.44618488 16.89308176 4.08203125 20.27734375 C1.6157254 22.31794578 1.06807393 22.20179745 -2.01171875 21.953125 C-3.57342385 21.74046728 -5.13217713 21.50518013 -6.6875 21.25 C-7.48478516 21.1365625 -8.28207031 21.023125 -9.10351562 20.90625 C-11.07186642 20.62337324 -13.03640184 20.31417571 -15 20 C-15 19.34 -15 18.68 -15 18 C-12.03 17.34 -9.06 16.68 -6 16 C-6.66 13.69 -7.32 11.38 -8 9 C-6.68 7.68 -5.36 6.36 -4 5 C-9.28 5 -14.56 5 -20 5 C-20 4.01 -20 3.02 -20 2 C-19.01 2 -18.02 2 -17 2 C-17 1.34 -17 0.68 -17 0 C-16.07767578 0.01740234 -16.07767578 0.01740234 -15.13671875 0.03515625 C-13.92435547 0.04869141 -13.92435547 0.04869141 -12.6875 0.0625 C-11.88699219 0.07410156 -11.08648437 0.08570313 -10.26171875 0.09765625 C-1.20599739 -0.29335072 -1.20599739 -0.29335072 0 0 Z " fill="#4984AC" transform="translate(24,3)"/>
<path d="M0 0 C0.33 0.66 0.66 1.32 1 2 C2.64551962 2.71727778 4.31422289 3.38325228 6 4 C6.66 4.33 7.32 4.66 8 5 C8 6.65 8 8.3 8 10 C7.01 10 6.02 10 5 10 C5 10.66 5 11.32 5 12 C6.06927734 11.98259766 6.06927734 11.98259766 7.16015625 11.96484375 C12.56325366 11.91393974 17.67828475 12.05391729 23 13 C22.67 13.99 22.34 14.98 22 16 C20.02 16.33 18.04 16.66 16 17 C18.31 17.33 20.62 17.66 23 18 C23 18.66 23 19.32 23 20 C14.75 20 6.5 20 -2 20 C-1.34 19.67 -0.68 19.34 0 19 C-0.33 18.01 -0.66 17.02 -1 16 C-1.31661477 10.58961227 -1.11873451 5.31398894 0 0 Z " fill="#355675" transform="translate(4,11)"/>
<path d="M0 0 C2.97 0.495 2.97 0.495 6 1 C8.29050086 7.26873921 8.29050086 7.26873921 7.09375 10.28125 C4.61870498 12.31300337 4.06883455 12.2015959 0.98828125 11.953125 C-0.57342385 11.74046728 -2.13217713 11.50518013 -3.6875 11.25 C-4.48478516 11.1365625 -5.28207031 11.023125 -6.10351562 10.90625 C-8.07186642 10.62337324 -10.03640184 10.31417571 -12 10 C-12 9.34 -12 8.68 -12 8 C-7.67435795 6.41744803 -3.571279 5.54855348 1 5 C0.67 3.35 0.34 1.7 0 0 Z " fill="#E1E4E5" transform="translate(21,13)"/>
<path d="M0 0 C1.32 0.33 2.64 0.66 4 1 C4 6.94 4 12.88 4 19 C3.01 18.67 2.02 18.34 1 18 C0.6278958 16.67696283 0.29369827 15.34262065 0 14 C-0.66 13.67 -1.32 13.34 -2 13 C-2 9.7 -2 6.4 -2 3 C-1.34 3 -0.68 3 0 3 C0 2.01 0 1.02 0 0 Z " fill="#20313F" transform="translate(26,0)"/>
<path d="M0 0 C0.66 0.33 1.32 0.66 2 1 C2 4.96 2 8.92 2 13 C-6.58 13 -15.16 13 -24 13 C-24 12.67 -24 12.34 -24 12 C-16.74 12 -9.48 12 -2 12 C-2 11.34 -2 10.68 -2 10 C-3.0725 10.04125 -4.145 10.0825 -5.25 10.125 C-9 10 -9 10 -13 8 C-9.7 7.67 -6.4 7.34 -3 7 C-2.01 4.69 -1.02 2.38 0 0 Z " fill="#615B3F" transform="translate(29,19)"/>
<path d="M0 0 C6.6 0 13.2 0 20 0 C20 0.99 20 1.98 20 3 C18.4840625 2.9690625 18.4840625 2.9690625 16.9375 2.9375 C13.04371722 2.8961534 13.04371722 2.8961534 9.4375 3.625 C5.67550473 4.03539948 3.46123693 3.43514702 0 2 C0 1.34 0 0.68 0 0 Z " fill="#A47630" transform="translate(6,0)"/>
<path d="M0 0 C0.99 0 1.98 0 3 0 C2.84152588 0.54817383 2.68305176 1.09634766 2.51977539 1.66113281 C1.9372438 4.28238816 1.78793845 6.73872553 1.68359375 9.421875 C1.64169922 10.44667969 1.59980469 11.47148437 1.55664062 12.52734375 C1.49766602 14.12255859 1.49766602 14.12255859 1.4375 15.75 C1.39431641 16.82894531 1.35113281 17.90789063 1.30664062 19.01953125 C1.20071011 21.67956428 1.09863579 24.33968812 1 27 C1.99 27.33 2.98 27.66 4 28 C3.34 28 2.68 28 2 28 C2.33 29.32 2.66 30.64 3 32 C1.68 32 0.36 32 -1 32 C-0.67 21.44 -0.34 10.88 0 0 Z " fill="#3A3D27" transform="translate(2,0)"/>
<path d="M0 0 C0 0.66 0 1.32 0 2 C-7.26 2 -14.52 2 -22 2 C-22 1.34 -22 0.68 -22 0 C-14.57161355 -1.33710956 -7.48595793 -0.68340908 0 0 Z " fill="#E8CC89" transform="translate(27,29)"/>
<path d="M0 0 C1.125 2.3125 1.125 2.3125 2 5 C1.01 6.485 1.01 6.485 0 8 C0 7.34 0 6.68 0 6 C-2.31 5.34 -4.62 4.68 -7 4 C-7 3.01 -7 2.02 -7 1 C-4.53721199 -0.231394 -2.7204945 -0.07159196 0 0 Z " fill="#141F1B" transform="translate(13,9)"/>
<path d="M0 0 C0.66 0 1.32 0 2 0 C3.76462683 3.08809695 4 4.23312136 4 8 C2.02 8.66 0.04 9.32 -2 10 C-2.33 9.01 -2.66 8.02 -3 7 C-2.67 6.34 -2.34 5.68 -2 5 C-3.32 4.34 -4.64 3.68 -6 3 C-3.525 3.495 -3.525 3.495 -1 4 C-0.67 2.68 -0.34 1.36 0 0 Z " fill="#4F623D" transform="translate(14,11)"/>
<path d="M0 0 C2 2 2 2 2.1953125 5.2578125 C2.17210937 6.53398437 2.14890625 7.81015625 2.125 9.125 C2.10695313 10.40632813 2.08890625 11.68765625 2.0703125 13.0078125 C2.04710937 13.99523438 2.02390625 14.98265625 2 16 C1.01 16 0.02 16 -1 16 C-1.09688221 10.55306686 -1.12862175 5.36095333 0 0 Z " fill="#497EAC" transform="translate(4,11)"/>
<path d="M0 0 C1.32 0.33 2.64 0.66 4 1 C4 6.94 4 12.88 4 19 C1.94720641 14.89441282 1.7783058 13.19793315 1.875 8.75 C1.89304687 7.67234375 1.91109375 6.5946875 1.9296875 5.484375 C1.95289062 4.66453125 1.97609375 3.8446875 2 3 C1.34 3 0.68 3 0 3 C0 2.01 0 1.02 0 0 Z " fill="#242619" transform="translate(26,0)"/>
<path d="M0 0 C1.98 0.99 3.96 1.98 6 3 C6 4.65 6 6.3 6 8 C4.35 8.33 2.7 8.66 1 9 C-0.4783226 6.04335481 -0.06032783 3.25770263 0 0 Z " fill="#2A5D91" transform="translate(6,13)"/>
<path d="M0 0 C3.96 0.33 7.92 0.66 12 1 C7.12206417 4.25195722 2.77608621 4.11325659 -3 4 C-3 3.34 -3 2.68 -3 2 C-2.01 2 -1.02 2 0 2 C0 1.34 0 0.68 0 0 Z " fill="#E0E2E0" transform="translate(7,3)"/>
<path d="M0 0 C-0.020625 0.78375 -0.04125 1.5675 -0.0625 2.375 C-0.18684063 4.98114961 -0.18684063 4.98114961 1 7 C-0.65 7 -2.3 7 -4 7 C-4.66 4.69 -5.32 2.38 -6 0 C-3.50907189 -1.24546405 -2.58919267 -0.7767578 0 0 Z " fill="#8DB8C6" transform="translate(22,12)"/>
<path d="M0 0 C0.99 0.33 1.98 0.66 3 1 C3 1.66 3 2.32 3 3 C3.66 3.33 4.32 3.66 5 4 C4.01 4.33 3.02 4.66 2 5 C2.66 5.66 3.32 6.32 4 7 C4 7.66 4 8.32 4 9 C2.35 9 0.7 9 -1 9 C-1 9.66 -1 10.32 -1 11 C-1.99 10.67 -2.98 10.34 -4 10 C-3.34 10 -2.68 10 -2 10 C-2 9.34 -2 8.68 -2 8 C-1.34 8 -0.68 8 0 8 C-0.185625 7.05125 -0.37125 6.1025 -0.5625 5.125 C-1 2 -1 2 0 0 Z " fill="#597A88" transform="translate(6,20)"/>
<path d="M0 0 C0.33 0.66 0.66 1.32 1 2 C1.66 2.33 2.32 2.66 3 3 C-2.72455159 6.81636773 -8.29749495 6.29282789 -15 6 C-15 5.67 -15 5.34 -15 5 C-11.04 4.34 -7.08 3.68 -3 3 C-3 2.34 -3 1.68 -3 1 C-2.01 0.67 -1.02 0.34 0 0 Z " fill="#96A09F" transform="translate(19,2)"/>
<path d="M0 0 C4.29 0.33 8.58 0.66 13 1 C12.67 1.99 12.34 2.98 12 4 C9.03 4 6.06 4 3 4 C3.33 3.34 3.66 2.68 4 2 C2.68 1.34 1.36 0.68 0 0 Z " fill="#7E9296" transform="translate(14,23)"/>
<path d="M0 0 C-0.66 1.32 -1.32 2.64 -2 4 C-3.65 3.67 -5.3 3.34 -7 3 C-7 2.34 -7 1.68 -7 1 C-7.66 0.67 -8.32 0.34 -9 0 C-5.52176885 -1.15941038 -3.54104422 -0.70820884 0 0 Z " fill="#2D4248" transform="translate(20,8)"/>
<path d="M0 0 C0.99 0 1.98 0 3 0 C2.84152588 0.57975586 2.68305176 1.15951172 2.51977539 1.75683594 C1.71911382 5.21220398 1.62776918 8.71910303 1.4375 12.25 C1.39431641 12.99507812 1.35113281 13.74015625 1.30664062 14.5078125 C1.20103275 16.338349 1.10005799 18.16915176 1 20 C0.67 20 0.34 20 0 20 C0 13.4 0 6.8 0 0 Z " fill="#1E2014" transform="translate(2,0)"/>
<path d="M0 0 C6.93 0.495 6.93 0.495 14 1 C14 1.66 14 2.32 14 3 C11.03 3 8.06 3 5 3 C5 2.34 5 1.68 5 1 C3.35 1 1.7 1 0 1 C0 0.67 0 0.34 0 0 Z " fill="#DBC17F" transform="translate(13,28)"/>
<path d="M0 0 C0.66 0 1.32 0 2 0 C2.33 3.63 2.66 7.26 3 11 C2.01 10.67 1.02 10.34 0 10 C0 6.7 0 3.4 0 0 Z " fill="#294662" transform="translate(24,3)"/>
<path d="M0 0 C2.97 0 5.94 0 9 0 C9 0.99 9 1.98 9 3 C6.03 2.67 3.06 2.34 0 2 C0 1.34 0 0.68 0 0 Z " fill="#B17F36" transform="translate(17,0)"/>
<path d="M0 0 C0.99 0.33 1.98 0.66 3 1 C3 2.98 3 4.96 3 7 C2.01 7 1.02 7 0 7 C0 4.69 0 2.38 0 0 Z " fill="#58A0C1" transform="translate(3,20)"/>
<path d="M0 0 C0.99 0 1.98 0 3 0 C3 0.66 3 1.32 3 2 C3.66 2 4.32 2 5 2 C5 2.66 5 3.32 5 4 C3.35 4.33 1.7 4.66 0 5 C0 3.35 0 1.7 0 0 Z " fill="#25497A" transform="translate(7,17)"/>
</svg>
